<?xml version="1.0" encoding="UTF-8" standalone="no"?>
<!DOCTYPE svg PUBLIC "-//W3C//DTD SVG 1.1//EN"
 "http://www.w3.org/Graphics/SVG/1.1/DTD/svg11.dtd">
<!-- Generated by graphviz version 2.40.1 (20161225.0304)
 -->
<!-- Title: %3 Pages: 1 -->
<svg width="484pt" height="111pt"
 viewBox="0.00 0.00 483.50 111.50" xmlns="http://www.w3.org/2000/svg" xmlns:xlink="http://www.w3.org/1999/xlink">
<g id="graph0" class="graph" transform="scale(1 1) rotate(0) translate(4 107.4975)">
<title>%3</title>
<polygon fill="#ffffff" stroke="transparent" points="-4,4 -4,-107.4975 479.5,-107.4975 479.5,4 -4,4"/>
<!-- IR_1 -->
<g id="node1" class="node">
<title>IR_1</title>
<polygon fill="#d3d3d3" stroke="#000000" points="35,-103.4975 0,-103.4975 0,-85.4975 35,-85.4975 35,-103.4975"/>
<text text-anchor="middle" x="17.5" y="-92.2975" font-family="Times,serif" font-size="9.00" fill="#000000">IR_1</text>
</g>
<!-- IR_2 -->
<g id="node2" class="node">
<title>IR_2</title>
<polygon fill="#d3d3d3" stroke="#000000" points="88,-103.4975 53,-103.4975 53,-85.4975 88,-85.4975 88,-103.4975"/>
<text text-anchor="middle" x="70.5" y="-92.2975" font-family="Times,serif" font-size="9.00" fill="#000000">IR_2</text>
</g>
<!-- M_R -->
<g id="node10" class="node">
<title>M_R</title>
<ellipse fill="#add8e6" stroke="#000000" cx="154.5" cy="-24.7487" rx="25" ry="25"/>
<text text-anchor="middle" x="154.5" y="-22.5487" font-family="Times,serif" font-size="9.00" fill="#000000">M_R</text>
</g>
<!-- IR_2&#45;&gt;M_R -->
<g id="edge2" class="edge">
<title>IR_2&#45;&gt;M_R</title>
<path fill="none" stroke="#00ff00" stroke-width=".5657" d="M81.4815,-85.379C93.0697,-75.7569 111.7759,-60.2244 127.3531,-47.29"/>
<polygon fill="#00ff00" stroke="#00ff00" stroke-width=".5657" points="129.7019,-49.889 135.1595,-40.808 125.2301,-44.5035 129.7019,-49.889"/>
</g>
<!-- IR_3 -->
<g id="node3" class="node">
<title>IR_3</title>
<polygon fill="#d3d3d3" stroke="#000000" points="141,-103.4975 106,-103.4975 106,-85.4975 141,-85.4975 141,-103.4975"/>
<text text-anchor="middle" x="123.5" y="-92.2975" font-family="Times,serif" font-size="9.00" fill="#000000">IR_3</text>
</g>
<!-- IR_3&#45;&gt;M_R -->
<g id="edge4" class="edge">
<title>IR_3&#45;&gt;M_R</title>
<path fill="none" stroke="#ff0000" stroke-width="1.1377" d="M127.5527,-85.379C130.8197,-78.0284 135.6197,-67.2286 140.2668,-56.7728"/>
<polygon fill="#ff0000" stroke="#ff0000" stroke-width="1.1377" points="143.58,-57.9357 144.4432,-47.3761 137.1834,-55.0927 143.58,-57.9357"/>
</g>
<!-- IR_4 -->
<g id="node4" class="node">
<title>IR_4</title>
<polygon fill="#d3d3d3" stroke="#000000" points="265,-103.4975 230,-103.4975 230,-85.4975 265,-85.4975 265,-103.4975"/>
<text text-anchor="middle" x="247.5" y="-92.2975" font-family="Times,serif" font-size="9.00" fill="#000000">IR_4</text>
</g>
<!-- M_L -->
<g id="node9" class="node">
<title>M_L</title>
<ellipse fill="#add8e6" stroke="#000000" cx="309.5" cy="-24.7487" rx="25" ry="25"/>
<text text-anchor="middle" x="309.5" y="-22.5487" font-family="Times,serif" font-size="9.00" fill="#000000">M_L</text>
</g>
<!-- IR_4&#45;&gt;M_L -->
<g id="edge6" class="edge">
<title>IR_4&#45;&gt;M_L</title>
<path fill="none" stroke="#00ff00" stroke-width=".4213" d="M255.6054,-85.379C263.3601,-76.6552 275.4332,-63.0732 286.1885,-50.9737"/>
<polygon fill="#00ff00" stroke="#00ff00" stroke-width=".4213" points="288.9794,-53.1021 293.0073,-43.3027 283.7476,-48.4515 288.9794,-53.1021"/>
</g>
<!-- IR_4&#45;&gt;M_R -->
<g id="edge5" class="edge">
<title>IR_4&#45;&gt;M_R</title>
<path fill="none" stroke="#00ff00" stroke-width=".1151" d="M235.3419,-85.379C222.0559,-75.4147 200.3189,-59.1123 182.7294,-45.9204"/>
<polygon fill="#00ff00" stroke="#00ff00" stroke-width=".1151" points="184.583,-42.9356 174.483,-39.7357 180.383,-48.5357 184.583,-42.9356"/>
</g>
<!-- Gr_Rew1 -->
<g id="node5" class="node">
<title>Gr_Rew1</title>
<polygon fill="#d3d3d3" stroke="#000000" points="335.5,-103.4975 283.5,-103.4975 283.5,-85.4975 335.5,-85.4975 335.5,-103.4975"/>
<text text-anchor="middle" x="309.5" y="-92.2975" font-family="Times,serif" font-size="9.00" fill="#000000">Gr_Rew1</text>
</g>
<!-- Gr_Rew1&#45;&gt;M_L -->
<g id="edge1" class="edge">
<title>Gr_Rew1&#45;&gt;M_L</title>
<path fill="none" stroke="#00ff00" stroke-width="1.3361" d="M309.5,-85.379C309.5,-78.7623 309.5,-69.3508 309.5,-59.9112"/>
<polygon fill="#00ff00" stroke="#00ff00" stroke-width="1.3361" points="313.0001,-59.788 309.5,-49.788 306.0001,-59.788 313.0001,-59.788"/>
</g>
<!-- Gr_Rew2 -->
<g id="node6" class="node">
<title>Gr_Rew2</title>
<polygon fill="#d3d3d3" stroke="#000000" points="211.5,-103.4975 159.5,-103.4975 159.5,-85.4975 211.5,-85.4975 211.5,-103.4975"/>
<text text-anchor="middle" x="185.5" y="-92.2975" font-family="Times,serif" font-size="9.00" fill="#000000">Gr_Rew2</text>
</g>
<!-- Gr_Rew2&#45;&gt;M_R -->
<g id="edge3" class="edge">
<title>Gr_Rew2&#45;&gt;M_R</title>
<path fill="none" stroke="#00ff00" stroke-width=".233" d="M181.4473,-85.379C178.1803,-78.0284 173.3803,-67.2286 168.7332,-56.7728"/>
<polygon fill="#00ff00" stroke="#00ff00" stroke-width=".233" points="171.8166,-55.0927 164.5568,-47.3761 165.42,-57.9357 171.8166,-55.0927"/>
</g>
<!-- Gr_Rew3 -->
<g id="node7" class="node">
<title>Gr_Rew3</title>
<polygon fill="#d3d3d3" stroke="#000000" points="475.5,-103.4975 423.5,-103.4975 423.5,-85.4975 475.5,-85.4975 475.5,-103.4975"/>
<text text-anchor="middle" x="449.5" y="-92.2975" font-family="Times,serif" font-size="9.00" fill="#000000">Gr_Rew3</text>
</g>
<!-- Gr_Rew4 -->
<g id="node8" class="node">
<title>Gr_Rew4</title>
<polygon fill="#d3d3d3" stroke="#000000" points="405.5,-103.4975 353.5,-103.4975 353.5,-85.4975 405.5,-85.4975 405.5,-103.4975"/>
<text text-anchor="middle" x="379.5" y="-92.2975" font-family="Times,serif" font-size="9.00" fill="#000000">Gr_Rew4</text>
</g>
<!-- Gr_Rew4&#45;&gt;M_L -->
<g id="edge7" class="edge">
<title>Gr_Rew4&#45;&gt;M_L</title>
<path fill="none" stroke="#ff0000" stroke-width=".7738" d="M370.3487,-85.379C361.2408,-76.3038 346.8565,-61.9712 334.3598,-49.5193"/>
<polygon fill="#ff0000" stroke="#ff0000" stroke-width=".7738" points="336.8285,-47.0382 327.2743,-42.4592 331.8876,-51.9969 336.8285,-47.0382"/>
</g>
</g>
</svg>
