<?xml version="1.0" encoding="UTF-8" standalone="no"?>
<!DOCTYPE svg PUBLIC "-//W3C//DTD SVG 1.1//EN"
 "http://www.w3.org/Graphics/SVG/1.1/DTD/svg11.dtd">
<!-- Generated by graphviz version 2.40.1 (20161225.0304)
 -->
<!-- Title: %3 Pages: 1 -->
<svg width="423pt" height="209pt"
 viewBox="0.00 0.00 423.00 208.69" xmlns="http://www.w3.org/2000/svg" xmlns:xlink="http://www.w3.org/1999/xlink">
<g id="graph0" class="graph" transform="scale(1 1) rotate(0) translate(4 204.6934)">
<title>%3</title>
<polygon fill="#ffffff" stroke="transparent" points="-4,4 -4,-204.6934 419,-204.6934 419,4 -4,4"/>
<!-- W1 -->
<g id="node1" class="node">
<title>W1</title>
<polygon fill="#d3d3d3" stroke="#000000" points="29,-110.0538 0,-110.0538 0,-92.0538 29,-92.0538 29,-110.0538"/>
<text text-anchor="middle" x="14.5" y="-98.8538" font-family="Times,serif" font-size="9.00" fill="#000000">W1</text>
</g>
<!-- ML -->
<g id="node9" class="node">
<title>ML</title>
<ellipse fill="#add8e6" stroke="#000000" cx="62.5" cy="-21.9203" rx="21.4286" ry="21.4286"/>
<text text-anchor="middle" x="62.5" y="-19.7203" font-family="Times,serif" font-size="9.00" fill="#000000">ML</text>
</g>
<!-- W1&#45;&gt;ML -->
<g id="edge5" class="edge">
<title>W1&#45;&gt;ML</title>
<path fill="none" stroke="#00ff00" stroke-width=".1476" d="M20.0062,-91.9762C26.3279,-81.5541 36.9934,-63.9709 46.0573,-49.028"/>
<polygon fill="#00ff00" stroke="#00ff00" stroke-width=".1476" points="49.247,-50.518 51.4408,-40.1527 43.262,-46.8876 49.247,-50.518"/>
</g>
<!-- W2 -->
<g id="node2" class="node">
<title>W2</title>
<polygon fill="#d3d3d3" stroke="#000000" points="206,-188.4802 177,-188.4802 177,-170.4802 206,-170.4802 206,-188.4802"/>
<text text-anchor="middle" x="191.5" y="-177.2802" font-family="Times,serif" font-size="9.00" fill="#000000">W2</text>
</g>
<!-- 332 -->
<g id="node11" class="node">
<title>332</title>
<ellipse fill="#ffffff" stroke="#000000" cx="164.5" cy="-101.0538" rx="21.4286" ry="21.4286"/>
<text text-anchor="middle" x="164.5" y="-98.8538" font-family="Times,serif" font-size="9.00" fill="#000000">332</text>
</g>
<!-- W2&#45;&gt;332 -->
<g id="edge1" class="edge">
<title>W2&#45;&gt;332</title>
<path fill="none" stroke="#00ff00" stroke-width=".4834" d="M188.2967,-170.1757C184.9695,-160.5113 179.5879,-144.8795 174.7835,-130.924"/>
<polygon fill="#00ff00" stroke="#00ff00" stroke-width=".4834" points="177.9893,-129.4838 171.4247,-121.1678 171.3706,-131.7625 177.9893,-129.4838"/>
</g>
<!-- 153 -->
<g id="node13" class="node">
<title>153</title>
<ellipse fill="none" stroke="#000000" cx="224.5" cy="-101.0538" rx="21.4286" ry="21.4286"/>
<text text-anchor="middle" x="224.5" y="-98.8538" font-family="Times,serif" font-size="9.00" fill="#000000">153</text>
</g>
<!-- W2&#45;&gt;153 -->
<g id="edge11" class="edge">
<title>W2&#45;&gt;153</title>
<path fill="none" stroke="#ff0000" stroke-width=".23" d="M195.4151,-170.1757C199.5489,-160.3515 206.2774,-144.361 212.222,-130.2333"/>
<polygon fill="#ff0000" stroke="#ff0000" stroke-width=".23" points="215.5183,-131.4236 216.1707,-120.8489 209.0662,-128.7087 215.5183,-131.4236"/>
</g>
<!-- W3 -->
<g id="node3" class="node">
<title>W3</title>
<polygon fill="#d3d3d3" stroke="#000000" points="125,-110.0538 96,-110.0538 96,-92.0538 125,-92.0538 125,-110.0538"/>
<text text-anchor="middle" x="110.5" y="-98.8538" font-family="Times,serif" font-size="9.00" fill="#000000">W3</text>
</g>
<!-- W3&#45;&gt;ML -->
<g id="edge7" class="edge">
<title>W3&#45;&gt;ML</title>
<path fill="none" stroke="#00ff00" stroke-width=".5855" d="M104.9938,-91.9762C98.6721,-81.5541 88.0066,-63.9709 78.9427,-49.028"/>
<polygon fill="#00ff00" stroke="#00ff00" stroke-width=".5855" points="81.738,-46.8876 73.5592,-40.1527 75.753,-50.518 81.738,-46.8876"/>
</g>
<!-- MR -->
<g id="node10" class="node">
<title>MR</title>
<ellipse fill="#add8e6" stroke="#000000" cx="218.5" cy="-21.9203" rx="21.8409" ry="21.8409"/>
<text text-anchor="middle" x="218.5" y="-19.7203" font-family="Times,serif" font-size="9.00" fill="#000000">MR</text>
</g>
<!-- W3&#45;&gt;MR -->
<g id="edge9" class="edge">
<title>W3&#45;&gt;MR</title>
<path fill="none" stroke="#ff0000" stroke-width=".4687" d="M120.5462,-91.6915C124.7586,-87.8943 129.7693,-83.5407 134.5,-79.8406 152.8658,-65.4761 174.552,-50.571 191.2889,-39.4787"/>
<polygon fill="#ff0000" stroke="#ff0000" stroke-width=".4687" points="193.5915,-42.1537 200.0255,-33.7362 189.7466,-36.3042 193.5915,-42.1537"/>
</g>
<!-- W4 -->
<g id="node4" class="node">
<title>W4</title>
<polygon fill="#d3d3d3" stroke="#000000" points="317,-188.4802 288,-188.4802 288,-170.4802 317,-170.4802 317,-188.4802"/>
<text text-anchor="middle" x="302.5" y="-177.2802" font-family="Times,serif" font-size="9.00" fill="#000000">W4</text>
</g>
<!-- Ep1 -->
<g id="node5" class="node">
<title>Ep1</title>
<polygon fill="#d3d3d3" stroke="#000000" points="333,-110.0538 302,-110.0538 302,-92.0538 333,-92.0538 333,-110.0538"/>
<text text-anchor="middle" x="317.5" y="-98.8538" font-family="Times,serif" font-size="9.00" fill="#000000">Ep1</text>
</g>
<!-- Ep1&#45;&gt;MR -->
<g id="edge3" class="edge">
<title>Ep1&#45;&gt;MR</title>
<path fill="none" stroke="#00ff00" stroke-width=".6484" d="M306.1434,-91.9762C290.9662,-79.8446 263.6499,-58.0099 243.5346,-41.9312"/>
<polygon fill="#00ff00" stroke="#00ff00" stroke-width=".6484" points="245.6775,-39.1633 235.6809,-35.6535 241.3068,-44.6312 245.6775,-39.1633"/>
</g>
<!-- Ep2 -->
<g id="node6" class="node">
<title>Ep2</title>
<polygon fill="#d3d3d3" stroke="#000000" points="78,-110.0538 47,-110.0538 47,-92.0538 78,-92.0538 78,-110.0538"/>
<text text-anchor="middle" x="62.5" y="-98.8538" font-family="Times,serif" font-size="9.00" fill="#000000">Ep2</text>
</g>
<!-- Ep2&#45;&gt;ML -->
<g id="edge6" class="edge">
<title>Ep2&#45;&gt;ML</title>
<path fill="none" stroke="#00ff00" stroke-width=".469" d="M62.5,-91.9762C62.5,-82.5944 62.5,-67.4098 62.5,-53.5719"/>
<polygon fill="#00ff00" stroke="#00ff00" stroke-width=".469" points="66.0001,-53.3708 62.5,-43.3708 59.0001,-53.3709 66.0001,-53.3708"/>
</g>
<!-- Ep3 -->
<g id="node7" class="node">
<title>Ep3</title>
<polygon fill="#d3d3d3" stroke="#000000" points="366,-188.4802 335,-188.4802 335,-170.4802 366,-170.4802 366,-188.4802"/>
<text text-anchor="middle" x="350.5" y="-177.2802" font-family="Times,serif" font-size="9.00" fill="#000000">Ep3</text>
</g>
<!-- Ep4 -->
<g id="node8" class="node">
<title>Ep4</title>
<polygon fill="#d3d3d3" stroke="#000000" points="415,-188.4802 384,-188.4802 384,-170.4802 415,-170.4802 415,-188.4802"/>
<text text-anchor="middle" x="399.5" y="-177.2802" font-family="Times,serif" font-size="9.00" fill="#000000">Ep4</text>
</g>
<!-- MR&#45;&gt;MR -->
<g id="edge8" class="edge">
<title>MR&#45;&gt;MR</title>
<path fill="none" stroke="#00ff00" stroke-width=".1843" d="M236.1492,-35.3884C247.4981,-38.9019 258.4203,-34.4125 258.4203,-21.9203 258.4203,-13.3319 253.2579,-8.5261 246.3435,-7.5029"/>
<polygon fill="#00ff00" stroke="#00ff00" stroke-width=".1843" points="245.7816,-4.04 236.1492,-8.4522 246.4307,-11.0098 245.7816,-4.04"/>
</g>
<!-- 332&#45;&gt;MR -->
<g id="edge4" class="edge">
<title>332&#45;&gt;MR</title>
<path fill="none" stroke="#ff0000" stroke-width=".2174" d="M176.4844,-83.4915C183.4668,-73.2592 192.4138,-60.148 200.2557,-48.6562"/>
<polygon fill="#ff0000" stroke="#ff0000" stroke-width=".2174" points="203.2406,-50.4914 205.9862,-40.2585 197.4585,-46.5457 203.2406,-50.4914"/>
</g>
<!-- 222 -->
<g id="node12" class="node">
<title>222</title>
<ellipse fill="#ffffff" stroke="#000000" cx="248.5" cy="-179.4802" rx="21.4286" ry="21.4286"/>
<text text-anchor="middle" x="248.5" y="-177.2802" font-family="Times,serif" font-size="9.00" fill="#000000">222</text>
</g>
<!-- 222&#45;&gt;MR -->
<g id="edge2" class="edge">
<title>222&#45;&gt;MR</title>
<path fill="none" stroke="#ff0000" stroke-width=".1002" d="M253.6891,-158.8173C257.917,-138.3565 262.0633,-106.3368 254.5,-79.8406 251.2156,-68.3347 244.9139,-56.8866 238.4891,-47.2438"/>
<polygon fill="#ff0000" stroke="#ff0000" stroke-width=".1002" points="241.2607,-45.1008 232.6371,-38.9458 235.5402,-49.1351 241.2607,-45.1008"/>
</g>
<!-- 222&#45;&gt;153 -->
<g id="edge10" class="edge">
<title>222&#45;&gt;153</title>
<path fill="none" stroke="#ff0000" stroke-width=".4473" d="M242.1943,-158.8746C239.6037,-150.4092 236.5522,-140.4375 233.7194,-131.1807"/>
<polygon fill="#ff0000" stroke="#ff0000" stroke-width=".4473" points="237.0367,-130.0599 230.7636,-121.5218 230.3431,-132.1083 237.0367,-130.0599"/>
</g>
</g>
</svg>
