<?xml version="1.0" encoding="UTF-8" standalone="no"?>
<!DOCTYPE svg PUBLIC "-//W3C//DTD SVG 1.1//EN"
 "http://www.w3.org/Graphics/SVG/1.1/DTD/svg11.dtd">
<!-- Generated by graphviz version 2.40.1 (20161225.0304)
 -->
<!-- Title: %3 Pages: 1 -->
<svg width="484pt" height="111pt"
 viewBox="0.00 0.00 483.50 111.50" xmlns="http://www.w3.org/2000/svg" xmlns:xlink="http://www.w3.org/1999/xlink">
<g id="graph0" class="graph" transform="scale(1 1) rotate(0) translate(4 107.4975)">
<title>%3</title>
<polygon fill="#ffffff" stroke="transparent" points="-4,4 -4,-107.4975 479.5,-107.4975 479.5,4 -4,4"/>
<!-- IR_1 -->
<g id="node1" class="node">
<title>IR_1</title>
<polygon fill="#d3d3d3" stroke="#000000" points="35,-103.4975 0,-103.4975 0,-85.4975 35,-85.4975 35,-103.4975"/>
<text text-anchor="middle" x="17.5" y="-92.2975" font-family="Times,serif" font-size="9.00" fill="#000000">IR_1</text>
</g>
<!-- IR_2 -->
<g id="node2" class="node">
<title>IR_2</title>
<polygon fill="#d3d3d3" stroke="#000000" points="88,-103.4975 53,-103.4975 53,-85.4975 88,-85.4975 88,-103.4975"/>
<text text-anchor="middle" x="70.5" y="-92.2975" font-family="Times,serif" font-size="9.00" fill="#000000">IR_2</text>
</g>
<!-- M_L -->
<g id="node10" class="node">
<title>M_L</title>
<ellipse fill="#add8e6" stroke="#000000" cx="154.5" cy="-24.7487" rx="25" ry="25"/>
<text text-anchor="middle" x="154.5" y="-22.5487" font-family="Times,serif" font-size="9.00" fill="#000000">M_L</text>
</g>
<!-- IR_2&#45;&gt;M_L -->
<g id="edge1" class="edge">
<title>IR_2&#45;&gt;M_L</title>
<path fill="none" stroke="#ff0000" stroke-width=".4184" d="M81.4815,-85.379C93.0697,-75.7569 111.7759,-60.2244 127.3531,-47.29"/>
<polygon fill="#ff0000" stroke="#ff0000" stroke-width=".4184" points="129.7019,-49.889 135.1595,-40.808 125.2301,-44.5035 129.7019,-49.889"/>
</g>
<!-- IR_3 -->
<g id="node3" class="node">
<title>IR_3</title>
<polygon fill="#d3d3d3" stroke="#000000" points="141,-103.4975 106,-103.4975 106,-85.4975 141,-85.4975 141,-103.4975"/>
<text text-anchor="middle" x="123.5" y="-92.2975" font-family="Times,serif" font-size="9.00" fill="#000000">IR_3</text>
</g>
<!-- IR_3&#45;&gt;M_L -->
<g id="edge4" class="edge">
<title>IR_3&#45;&gt;M_L</title>
<path fill="none" stroke="#ff0000" stroke-width="1.5136" d="M127.5527,-85.379C130.8197,-78.0284 135.6197,-67.2286 140.2668,-56.7728"/>
<polygon fill="#ff0000" stroke="#ff0000" stroke-width="1.5136" points="143.58,-57.9357 144.4432,-47.3761 137.1834,-55.0927 143.58,-57.9357"/>
</g>
<!-- IR_4 -->
<g id="node4" class="node">
<title>IR_4</title>
<polygon fill="#d3d3d3" stroke="#000000" points="335,-103.4975 300,-103.4975 300,-85.4975 335,-85.4975 335,-103.4975"/>
<text text-anchor="middle" x="317.5" y="-92.2975" font-family="Times,serif" font-size="9.00" fill="#000000">IR_4</text>
</g>
<!-- M_R -->
<g id="node9" class="node">
<title>M_R</title>
<ellipse fill="#add8e6" stroke="#000000" cx="379.5" cy="-24.7487" rx="25" ry="25"/>
<text text-anchor="middle" x="379.5" y="-22.5487" font-family="Times,serif" font-size="9.00" fill="#000000">M_R</text>
</g>
<!-- IR_4&#45;&gt;M_R -->
<g id="edge6" class="edge">
<title>IR_4&#45;&gt;M_R</title>
<path fill="none" stroke="#ff0000" stroke-width=".1551" d="M325.6054,-85.379C333.3601,-76.6552 345.4332,-63.0732 356.1885,-50.9737"/>
<polygon fill="#ff0000" stroke="#ff0000" stroke-width=".1551" points="358.9794,-53.1021 363.0073,-43.3027 353.7476,-48.4515 358.9794,-53.1021"/>
</g>
<!-- Gr_Rew1 -->
<g id="node5" class="node">
<title>Gr_Rew1</title>
<polygon fill="#d3d3d3" stroke="#000000" points="211.5,-103.4975 159.5,-103.4975 159.5,-85.4975 211.5,-85.4975 211.5,-103.4975"/>
<text text-anchor="middle" x="185.5" y="-92.2975" font-family="Times,serif" font-size="9.00" fill="#000000">Gr_Rew1</text>
</g>
<!-- Gr_Rew1&#45;&gt;M_L -->
<g id="edge2" class="edge">
<title>Gr_Rew1&#45;&gt;M_L</title>
<path fill="none" stroke="#ff0000" stroke-width=".9725" d="M181.4473,-85.379C178.1803,-78.0284 173.3803,-67.2286 168.7332,-56.7728"/>
<polygon fill="#ff0000" stroke="#ff0000" stroke-width=".9725" points="171.8166,-55.0927 164.5568,-47.3761 165.42,-57.9357 171.8166,-55.0927"/>
</g>
<!-- Gr_Rew2 -->
<g id="node6" class="node">
<title>Gr_Rew2</title>
<polygon fill="#d3d3d3" stroke="#000000" points="405.5,-103.4975 353.5,-103.4975 353.5,-85.4975 405.5,-85.4975 405.5,-103.4975"/>
<text text-anchor="middle" x="379.5" y="-92.2975" font-family="Times,serif" font-size="9.00" fill="#000000">Gr_Rew2</text>
</g>
<!-- Gr_Rew2&#45;&gt;M_R -->
<g id="edge3" class="edge">
<title>Gr_Rew2&#45;&gt;M_R</title>
<path fill="none" stroke="#00ff00" stroke-width="1.5411" d="M379.5,-85.379C379.5,-78.7623 379.5,-69.3508 379.5,-59.9112"/>
<polygon fill="#00ff00" stroke="#00ff00" stroke-width="1.5411" points="383.0001,-59.788 379.5,-49.788 376.0001,-59.788 383.0001,-59.788"/>
</g>
<!-- Gr_Rew3 -->
<g id="node7" class="node">
<title>Gr_Rew3</title>
<polygon fill="#d3d3d3" stroke="#000000" points="281.5,-103.4975 229.5,-103.4975 229.5,-85.4975 281.5,-85.4975 281.5,-103.4975"/>
<text text-anchor="middle" x="255.5" y="-92.2975" font-family="Times,serif" font-size="9.00" fill="#000000">Gr_Rew3</text>
</g>
<!-- Gr_Rew3&#45;&gt;M_L -->
<g id="edge5" class="edge">
<title>Gr_Rew3&#45;&gt;M_L</title>
<path fill="none" stroke="#00ff00" stroke-width="1.1318" d="M242.296,-85.379C227.4578,-75.132 202.9134,-58.1821 183.543,-44.8053"/>
<polygon fill="#00ff00" stroke="#00ff00" stroke-width="1.1318" points="185.2781,-41.75 175.0606,-38.9475 181.3003,-47.51 185.2781,-41.75"/>
</g>
<!-- Gr_Rew4 -->
<g id="node8" class="node">
<title>Gr_Rew4</title>
<polygon fill="#d3d3d3" stroke="#000000" points="475.5,-103.4975 423.5,-103.4975 423.5,-85.4975 475.5,-85.4975 475.5,-103.4975"/>
<text text-anchor="middle" x="449.5" y="-92.2975" font-family="Times,serif" font-size="9.00" fill="#000000">Gr_Rew4</text>
</g>
<!-- Gr_Rew4&#45;&gt;M_R -->
<g id="edge7" class="edge">
<title>Gr_Rew4&#45;&gt;M_R</title>
<path fill="none" stroke="#ff0000" stroke-width="1.5732" d="M440.3487,-85.379C431.2408,-76.3038 416.8565,-61.9712 404.3598,-49.5193"/>
<polygon fill="#ff0000" stroke="#ff0000" stroke-width="1.5732" points="406.8285,-47.0382 397.2743,-42.4592 401.8876,-51.9969 406.8285,-47.0382"/>
</g>
</g>
</svg>
