<?xml version="1.0" encoding="UTF-8" standalone="no"?>
<!DOCTYPE svg PUBLIC "-//W3C//DTD SVG 1.1//EN"
 "http://www.w3.org/Graphics/SVG/1.1/DTD/svg11.dtd">
<!-- Generated by graphviz version 2.40.1 (20161225.0304)
 -->
<!-- Title: %3 Pages: 1 -->
<svg width="374pt" height="106pt"
 viewBox="0.00 0.00 374.00 105.84" xmlns="http://www.w3.org/2000/svg" xmlns:xlink="http://www.w3.org/1999/xlink">
<g id="graph0" class="graph" transform="scale(1 1) rotate(0) translate(4 101.8406)">
<title>%3</title>
<polygon fill="#ffffff" stroke="transparent" points="-4,4 -4,-101.8406 370,-101.8406 370,4 -4,4"/>
<!-- W1 -->
<g id="node1" class="node">
<title>W1</title>
<polygon fill="#d3d3d3" stroke="#000000" points="29,-97.8406 0,-97.8406 0,-79.8406 29,-79.8406 29,-97.8406"/>
<text text-anchor="middle" x="14.5" y="-86.6406" font-family="Times,serif" font-size="9.00" fill="#000000">W1</text>
</g>
<!-- MR -->
<g id="node10" class="node">
<title>MR</title>
<ellipse fill="#add8e6" stroke="#000000" cx="90.5" cy="-21.9203" rx="21.8409" ry="21.8409"/>
<text text-anchor="middle" x="90.5" y="-19.7203" font-family="Times,serif" font-size="9.00" fill="#000000">MR</text>
</g>
<!-- W1&#45;&gt;MR -->
<g id="edge1" class="edge">
<title>W1&#45;&gt;MR</title>
<path fill="none" stroke="#ff0000" stroke-width=".2105" d="M24.7497,-79.8154C35.3171,-70.5106 52.1798,-55.6624 66.1821,-43.333"/>
<polygon fill="#ff0000" stroke="#ff0000" stroke-width=".2105" points="68.8345,-45.6609 74.0267,-36.4256 64.2085,-40.4073 68.8345,-45.6609"/>
</g>
<!-- W2 -->
<g id="node2" class="node">
<title>W2</title>
<polygon fill="#d3d3d3" stroke="#000000" points="317,-97.8406 288,-97.8406 288,-79.8406 317,-79.8406 317,-97.8406"/>
<text text-anchor="middle" x="302.5" y="-86.6406" font-family="Times,serif" font-size="9.00" fill="#000000">W2</text>
</g>
<!-- W3 -->
<g id="node3" class="node">
<title>W3</title>
<polygon fill="#d3d3d3" stroke="#000000" points="125,-97.8406 96,-97.8406 96,-79.8406 125,-79.8406 125,-97.8406"/>
<text text-anchor="middle" x="110.5" y="-86.6406" font-family="Times,serif" font-size="9.00" fill="#000000">W3</text>
</g>
<!-- ML -->
<g id="node9" class="node">
<title>ML</title>
<ellipse fill="#add8e6" stroke="#000000" cx="177.5" cy="-21.9203" rx="21.4286" ry="21.4286"/>
<text text-anchor="middle" x="177.5" y="-19.7203" font-family="Times,serif" font-size="9.00" fill="#000000">ML</text>
</g>
<!-- W3&#45;&gt;ML -->
<g id="edge5" class="edge">
<title>W3&#45;&gt;ML</title>
<path fill="none" stroke="#ff0000" stroke-width=".1875" d="M119.5359,-79.8154C128.6465,-70.7157 143.0649,-56.3144 155.2418,-44.152"/>
<polygon fill="#ff0000" stroke="#ff0000" stroke-width=".1875" points="157.8646,-46.4792 162.4665,-36.9359 152.9178,-41.5265 157.8646,-46.4792"/>
</g>
<!-- W3&#45;&gt;MR -->
<g id="edge6" class="edge">
<title>W3&#45;&gt;MR</title>
<path fill="none" stroke="#ff0000" stroke-width=".277" d="M107.8027,-79.8154C105.7076,-72.805 102.672,-62.648 99.7265,-52.7923"/>
<polygon fill="#ff0000" stroke="#ff0000" stroke-width=".277" points="103.0662,-51.7437 96.8492,-43.1647 96.3593,-53.7482 103.0662,-51.7437"/>
</g>
<!-- W4 -->
<g id="node4" class="node">
<title>W4</title>
<polygon fill="#d3d3d3" stroke="#000000" points="221,-97.8406 192,-97.8406 192,-79.8406 221,-79.8406 221,-97.8406"/>
<text text-anchor="middle" x="206.5" y="-86.6406" font-family="Times,serif" font-size="9.00" fill="#000000">W4</text>
</g>
<!-- W4&#45;&gt;ML -->
<g id="edge8" class="edge">
<title>W4&#45;&gt;ML</title>
<path fill="none" stroke="#ff0000" stroke-width=".3741" d="M202.5889,-79.8154C199.3456,-72.3312 194.5482,-61.2606 190.0147,-50.7991"/>
<polygon fill="#ff0000" stroke="#ff0000" stroke-width=".3741" points="193.1652,-49.2669 185.9775,-41.4831 186.7424,-52.0503 193.1652,-49.2669"/>
</g>
<!-- Ep1 -->
<g id="node5" class="node">
<title>Ep1</title>
<polygon fill="#d3d3d3" stroke="#000000" points="78,-97.8406 47,-97.8406 47,-79.8406 78,-79.8406 78,-97.8406"/>
<text text-anchor="middle" x="62.5" y="-86.6406" font-family="Times,serif" font-size="9.00" fill="#000000">Ep1</text>
</g>
<!-- Ep1&#45;&gt;MR -->
<g id="edge2" class="edge">
<title>Ep1&#45;&gt;MR</title>
<path fill="none" stroke="#00ff00" stroke-width=".5817" d="M66.2762,-79.8154C69.3079,-72.5698 73.7459,-61.9628 77.9976,-51.8013"/>
<polygon fill="#00ff00" stroke="#00ff00" stroke-width=".5817" points="81.3337,-52.8956 81.9648,-42.3195 74.8761,-50.1936 81.3337,-52.8956"/>
</g>
<!-- Ep2 -->
<g id="node6" class="node">
<title>Ep2</title>
<polygon fill="#d3d3d3" stroke="#000000" points="174,-97.8406 143,-97.8406 143,-79.8406 174,-79.8406 174,-97.8406"/>
<text text-anchor="middle" x="158.5" y="-86.6406" font-family="Times,serif" font-size="9.00" fill="#000000">Ep2</text>
</g>
<!-- Ep2&#45;&gt;ML -->
<g id="edge4" class="edge">
<title>Ep2&#45;&gt;ML</title>
<path fill="none" stroke="#00ff00" stroke-width=".554" d="M161.0624,-79.8154C163.0832,-72.698 166.0249,-62.3372 168.8629,-52.3411"/>
<polygon fill="#00ff00" stroke="#00ff00" stroke-width=".554" points="172.2641,-53.1761 171.6285,-42.6003 165.5303,-51.2641 172.2641,-53.1761"/>
</g>
<!-- Ep2&#45;&gt;MR -->
<g id="edge3" class="edge">
<title>Ep2&#45;&gt;MR</title>
<path fill="none" stroke="#00ff00" stroke-width=".2701" d="M149.3292,-79.8154C140.2027,-70.8339 125.8282,-56.6876 113.573,-44.627"/>
<polygon fill="#00ff00" stroke="#00ff00" stroke-width=".2701" points="115.8646,-41.9716 106.2822,-37.4519 110.9546,-46.9608 115.8646,-41.9716"/>
</g>
<!-- Ep3 -->
<g id="node7" class="node">
<title>Ep3</title>
<polygon fill="#d3d3d3" stroke="#000000" points="270,-97.8406 239,-97.8406 239,-79.8406 270,-79.8406 270,-97.8406"/>
<text text-anchor="middle" x="254.5" y="-86.6406" font-family="Times,serif" font-size="9.00" fill="#000000">Ep3</text>
</g>
<!-- Ep3&#45;&gt;ML -->
<g id="edge7" class="edge">
<title>Ep3&#45;&gt;ML</title>
<path fill="none" stroke="#00ff00" stroke-width=".6727" d="M244.1154,-79.8154C233.1704,-70.3032 215.5597,-54.9978 201.1938,-42.5125"/>
<polygon fill="#00ff00" stroke="#00ff00" stroke-width=".6727" points="203.4533,-39.839 193.6095,-35.921 198.8614,-45.1225 203.4533,-39.839"/>
</g>
<!-- Ep4 -->
<g id="node8" class="node">
<title>Ep4</title>
<polygon fill="#d3d3d3" stroke="#000000" points="366,-97.8406 335,-97.8406 335,-79.8406 366,-79.8406 366,-97.8406"/>
<text text-anchor="middle" x="350.5" y="-86.6406" font-family="Times,serif" font-size="9.00" fill="#000000">Ep4</text>
</g>
<!-- MR&#45;&gt;MR -->
<g id="edge9" class="edge">
<title>MR&#45;&gt;MR</title>
<path fill="none" stroke="#00ff00" stroke-width=".2257" d="M109.3926,-33.6155C120.2827,-36.0023 130.4203,-32.1039 130.4203,-21.9203 130.4203,-15.0782 125.844,-11.0733 119.5379,-9.9057"/>
<polygon fill="#00ff00" stroke="#00ff00" stroke-width=".2257" points="119.2775,-6.4121 109.3926,-10.2251 119.4978,-13.4086 119.2775,-6.4121"/>
</g>
</g>
</svg>
