<?xml version="1.0" encoding="UTF-8" standalone="no"?>
<!DOCTYPE svg PUBLIC "-//W3C//DTD SVG 1.1//EN"
 "http://www.w3.org/Graphics/SVG/1.1/DTD/svg11.dtd">
<!-- Generated by graphviz version 2.40.1 (20161225.0304)
 -->
<!-- Title: %3 Pages: 1 -->
<svg width="315pt" height="110pt"
 viewBox="0.00 0.00 314.54 110.08" xmlns="http://www.w3.org/2000/svg" xmlns:xlink="http://www.w3.org/1999/xlink">
<g id="graph0" class="graph" transform="scale(1 1) rotate(0) translate(4 106.0833)">
<title>%3</title>
<polygon fill="#ffffff" stroke="transparent" points="-4,4 -4,-106.0833 310.5416,-106.0833 310.5416,4 -4,4"/>
<!-- IR_1 -->
<g id="node1" class="node">
<title>IR_1</title>
<polygon fill="#d3d3d3" stroke="#000000" points="35,-102.0833 0,-102.0833 0,-84.0833 35,-84.0833 35,-102.0833"/>
<text text-anchor="middle" x="17.5" y="-90.8833" font-family="Times,serif" font-size="9.00" fill="#000000">IR_1</text>
</g>
<!-- M_2 -->
<g id="node8" class="node">
<title>M_2</title>
<ellipse fill="#add8e6" stroke="#000000" cx="43.5" cy="-24.0416" rx="24.0833" ry="24.0833"/>
<text text-anchor="middle" x="43.5" y="-21.8416" font-family="Times,serif" font-size="9.00" fill="#000000">M_2</text>
</g>
<!-- IR_1&#45;&gt;M_2 -->
<g id="edge2" class="edge">
<title>IR_1&#45;&gt;M_2</title>
<path fill="none" stroke="#00ff00" stroke-width=".4113" d="M20.899,-84.0573C23.5903,-76.9108 27.5219,-66.4707 31.354,-56.2946"/>
<polygon fill="#00ff00" stroke="#00ff00" stroke-width=".4113" points="34.7051,-57.327 34.954,-46.7351 28.1543,-54.86 34.7051,-57.327"/>
</g>
<!-- IR_2 -->
<g id="node2" class="node">
<title>IR_2</title>
<polygon fill="#d3d3d3" stroke="#000000" points="141,-102.0833 106,-102.0833 106,-84.0833 141,-84.0833 141,-102.0833"/>
<text text-anchor="middle" x="123.5" y="-90.8833" font-family="Times,serif" font-size="9.00" fill="#000000">IR_2</text>
</g>
<!-- IR_3 -->
<g id="node3" class="node">
<title>IR_3</title>
<polygon fill="#d3d3d3" stroke="#000000" points="88,-102.0833 53,-102.0833 53,-84.0833 88,-84.0833 88,-102.0833"/>
<text text-anchor="middle" x="70.5" y="-90.8833" font-family="Times,serif" font-size="9.00" fill="#000000">IR_3</text>
</g>
<!-- IR_3&#45;&gt;M_2 -->
<g id="edge1" class="edge">
<title>IR_3&#45;&gt;M_2</title>
<path fill="none" stroke="#ff0000" stroke-width="1.315" d="M66.9702,-84.0573C64.1538,-76.8554 60.0293,-66.3087 56.0206,-56.058"/>
<polygon fill="#ff0000" stroke="#ff0000" stroke-width="1.315" points="59.1609,-54.478 52.2591,-46.4396 52.6417,-57.0275 59.1609,-54.478"/>
</g>
<!-- IR_4 -->
<g id="node4" class="node">
<title>IR_4</title>
<polygon fill="#d3d3d3" stroke="#000000" points="194,-102.0833 159,-102.0833 159,-84.0833 194,-84.0833 194,-102.0833"/>
<text text-anchor="middle" x="176.5" y="-90.8833" font-family="Times,serif" font-size="9.00" fill="#000000">IR_4</text>
</g>
<!-- Gr_1 -->
<g id="node5" class="node">
<title>Gr_1</title>
<polygon fill="#d3d3d3" stroke="#000000" points="247,-102.0833 212,-102.0833 212,-84.0833 247,-84.0833 247,-102.0833"/>
<text text-anchor="middle" x="229.5" y="-90.8833" font-family="Times,serif" font-size="9.00" fill="#000000">Gr_1</text>
</g>
<!-- Gr_2 -->
<g id="node6" class="node">
<title>Gr_2</title>
<polygon fill="#d3d3d3" stroke="#000000" points="300,-102.0833 265,-102.0833 265,-84.0833 300,-84.0833 300,-102.0833"/>
<text text-anchor="middle" x="282.5" y="-90.8833" font-family="Times,serif" font-size="9.00" fill="#000000">Gr_2</text>
</g>
<!-- M_1 -->
<g id="node7" class="node">
<title>M_1</title>
<ellipse fill="#add8e6" stroke="#000000" cx="282.5" cy="-24.0416" rx="24.0833" ry="24.0833"/>
<text text-anchor="middle" x="282.5" y="-21.8416" font-family="Times,serif" font-size="9.00" fill="#000000">M_1</text>
</g>
<!-- Gr_2&#45;&gt;M_1 -->
<g id="edge3" class="edge">
<title>Gr_2&#45;&gt;M_1</title>
<path fill="none" stroke="#00ff00" stroke-width=".6143" d="M282.5,-84.0573C282.5,-77.4003 282.5,-67.8853 282.5,-58.388"/>
<polygon fill="#00ff00" stroke="#00ff00" stroke-width=".6143" points="286.0001,-58.2254 282.5,-48.2254 279.0001,-58.2254 286.0001,-58.2254"/>
</g>
</g>
</svg>
