<?xml version="1.0" encoding="UTF-8" standalone="no"?>
<!DOCTYPE svg PUBLIC "-//W3C//DTD SVG 1.1//EN"
 "http://www.w3.org/Graphics/SVG/1.1/DTD/svg11.dtd">
<!-- Generated by graphviz version 2.40.1 (20161225.0304)
 -->
<!-- Title: %3 Pages: 1 -->
<svg width="483pt" height="111pt"
 viewBox="0.00 0.00 483.00 111.50" xmlns="http://www.w3.org/2000/svg" xmlns:xlink="http://www.w3.org/1999/xlink">
<g id="graph0" class="graph" transform="scale(1 1) rotate(0) translate(4 107.4975)">
<title>%3</title>
<polygon fill="#ffffff" stroke="transparent" points="-4,4 -4,-107.4975 479,-107.4975 479,4 -4,4"/>
<!-- IR_1 -->
<g id="node1" class="node">
<title>IR_1</title>
<polygon fill="#d3d3d3" stroke="#000000" points="88,-103.4975 53,-103.4975 53,-85.4975 88,-85.4975 88,-103.4975"/>
<text text-anchor="middle" x="70.5" y="-92.2975" font-family="Times,serif" font-size="9.00" fill="#000000">IR_1</text>
</g>
<!-- M_L -->
<g id="node9" class="node">
<title>M_L</title>
<ellipse fill="#add8e6" stroke="#000000" cx="132.5" cy="-24.7487" rx="25" ry="25"/>
<text text-anchor="middle" x="132.5" y="-22.5487" font-family="Times,serif" font-size="9.00" fill="#000000">M_L</text>
</g>
<!-- IR_1&#45;&gt;M_L -->
<g id="edge10" class="edge">
<title>IR_1&#45;&gt;M_L</title>
<path fill="none" stroke="#ff0000" stroke-width=".5366" d="M78.6054,-85.379C86.3601,-76.6552 98.4332,-63.0732 109.1885,-50.9737"/>
<polygon fill="#ff0000" stroke="#ff0000" stroke-width=".5366" points="111.9794,-53.1021 116.0073,-43.3027 106.7476,-48.4515 111.9794,-53.1021"/>
</g>
<!-- M_R -->
<g id="node10" class="node">
<title>M_R</title>
<ellipse fill="#add8e6" stroke="#000000" cx="202.5" cy="-24.7487" rx="25" ry="25"/>
<text text-anchor="middle" x="202.5" y="-22.5487" font-family="Times,serif" font-size="9.00" fill="#000000">M_R</text>
</g>
<!-- IR_1&#45;&gt;M_R -->
<g id="edge1" class="edge">
<title>IR_1&#45;&gt;M_R</title>
<path fill="none" stroke="#ff0000" stroke-width=".4934" d="M88.2777,-87.2052C107.8848,-78.9257 140.1477,-64.5963 166.5,-49.4975 168.8855,-48.1307 171.3173,-46.6547 173.7344,-45.1279"/>
<polygon fill="#ff0000" stroke="#ff0000" stroke-width=".4934" points="175.8861,-47.9018 182.3147,-39.4802 172.0374,-42.0548 175.8861,-47.9018"/>
</g>
<!-- IR_2 -->
<g id="node2" class="node">
<title>IR_2</title>
<polygon fill="#d3d3d3" stroke="#000000" points="35,-103.4975 0,-103.4975 0,-85.4975 35,-85.4975 35,-103.4975"/>
<text text-anchor="middle" x="17.5" y="-92.2975" font-family="Times,serif" font-size="9.00" fill="#000000">IR_2</text>
</g>
<!-- IR_2&#45;&gt;M_L -->
<g id="edge3" class="edge">
<title>IR_2&#45;&gt;M_L</title>
<path fill="none" stroke="#ff0000" stroke-width="1.1885" d="M32.5342,-85.379C50.1927,-74.669 79.924,-56.6366 102.3834,-43.0148"/>
<polygon fill="#ff0000" stroke="#ff0000" stroke-width="1.1885" points="104.4667,-45.8447 111.2019,-37.6663 100.8365,-39.8595 104.4667,-45.8447"/>
</g>
<!-- IR_3 -->
<g id="node3" class="node">
<title>IR_3</title>
<polygon fill="#d3d3d3" stroke="#000000" points="422,-103.4975 387,-103.4975 387,-85.4975 422,-85.4975 422,-103.4975"/>
<text text-anchor="middle" x="404.5" y="-92.2975" font-family="Times,serif" font-size="9.00" fill="#000000">IR_3</text>
</g>
<!-- IR_4 -->
<g id="node4" class="node">
<title>IR_4</title>
<polygon fill="#d3d3d3" stroke="#000000" points="475,-103.4975 440,-103.4975 440,-85.4975 475,-85.4975 475,-103.4975"/>
<text text-anchor="middle" x="457.5" y="-92.2975" font-family="Times,serif" font-size="9.00" fill="#000000">IR_4</text>
</g>
<!-- Gr_Rew1 -->
<g id="node5" class="node">
<title>Gr_Rew1</title>
<polygon fill="#d3d3d3" stroke="#000000" points="368.5,-103.4975 316.5,-103.4975 316.5,-85.4975 368.5,-85.4975 368.5,-103.4975"/>
<text text-anchor="middle" x="342.5" y="-92.2975" font-family="Times,serif" font-size="9.00" fill="#000000">Gr_Rew1</text>
</g>
<!-- Gr_Rew1&#45;&gt;M_R -->
<g id="edge2" class="edge">
<title>Gr_Rew1&#45;&gt;M_R</title>
<path fill="none" stroke="#ff0000" stroke-width="1.4244" d="M324.1974,-85.379C301.3898,-74.0162 262.0384,-54.4111 234.2677,-40.5756"/>
<polygon fill="#ff0000" stroke="#ff0000" stroke-width="1.4244" points="235.4855,-37.272 224.974,-35.9454 232.3639,-43.5375 235.4855,-37.272"/>
</g>
<!-- Gr_Rew2 -->
<g id="node6" class="node">
<title>Gr_Rew2</title>
<polygon fill="#d3d3d3" stroke="#000000" points="158.5,-103.4975 106.5,-103.4975 106.5,-85.4975 158.5,-85.4975 158.5,-103.4975"/>
<text text-anchor="middle" x="132.5" y="-92.2975" font-family="Times,serif" font-size="9.00" fill="#000000">Gr_Rew2</text>
</g>
<!-- Gr_Rew2&#45;&gt;M_L -->
<g id="edge5" class="edge">
<title>Gr_Rew2&#45;&gt;M_L</title>
<path fill="none" stroke="#00ff00" stroke-width=".2869" d="M132.5,-85.379C132.5,-78.7623 132.5,-69.3508 132.5,-59.9112"/>
<polygon fill="#00ff00" stroke="#00ff00" stroke-width=".2869" points="136.0001,-59.788 132.5,-49.788 129.0001,-59.788 136.0001,-59.788"/>
</g>
<!-- Gr_Rew2&#45;&gt;M_R -->
<g id="edge4" class="edge">
<title>Gr_Rew2&#45;&gt;M_R</title>
<path fill="none" stroke="#00ff00" stroke-width=".2991" d="M141.6513,-85.379C150.7592,-76.3038 165.1435,-61.9712 177.6402,-49.5193"/>
<polygon fill="#00ff00" stroke="#00ff00" stroke-width=".2991" points="180.1124,-51.9969 184.7257,-42.4592 175.1715,-47.0382 180.1124,-51.9969"/>
</g>
<!-- Gr_Rew3 -->
<g id="node7" class="node">
<title>Gr_Rew3</title>
<polygon fill="#d3d3d3" stroke="#000000" points="228.5,-103.4975 176.5,-103.4975 176.5,-85.4975 228.5,-85.4975 228.5,-103.4975"/>
<text text-anchor="middle" x="202.5" y="-92.2975" font-family="Times,serif" font-size="9.00" fill="#000000">Gr_Rew3</text>
</g>
<!-- Gr_Rew3&#45;&gt;M_L -->
<g id="edge6" class="edge">
<title>Gr_Rew3&#45;&gt;M_L</title>
<path fill="none" stroke="#00ff00" stroke-width=".26" d="M193.3487,-85.379C184.2408,-76.3038 169.8565,-61.9712 157.3598,-49.5193"/>
<polygon fill="#00ff00" stroke="#00ff00" stroke-width=".26" points="159.8285,-47.0382 150.2743,-42.4592 154.8876,-51.9969 159.8285,-47.0382"/>
</g>
<!-- Gr_Rew3&#45;&gt;M_R -->
<g id="edge7" class="edge">
<title>Gr_Rew3&#45;&gt;M_R</title>
<path fill="none" stroke="#00ff00" stroke-width=".3474" d="M202.5,-85.379C202.5,-78.7623 202.5,-69.3508 202.5,-59.9112"/>
<polygon fill="#00ff00" stroke="#00ff00" stroke-width=".3474" points="206.0001,-59.788 202.5,-49.788 199.0001,-59.788 206.0001,-59.788"/>
</g>
<!-- Gr_Rew4 -->
<g id="node8" class="node">
<title>Gr_Rew4</title>
<polygon fill="#d3d3d3" stroke="#000000" points="298.5,-103.4975 246.5,-103.4975 246.5,-85.4975 298.5,-85.4975 298.5,-103.4975"/>
<text text-anchor="middle" x="272.5" y="-92.2975" font-family="Times,serif" font-size="9.00" fill="#000000">Gr_Rew4</text>
</g>
<!-- Gr_Rew4&#45;&gt;M_L -->
<g id="edge9" class="edge">
<title>Gr_Rew4&#45;&gt;M_L</title>
<path fill="none" stroke="#ff0000" stroke-width=".9233" d="M247.9089,-85.4186C226.424,-77.1233 194.6661,-63.9732 168.5,-49.4975 166.0943,-48.1666 163.648,-46.7163 161.2209,-45.2072"/>
<polygon fill="#ff0000" stroke="#ff0000" stroke-width=".9233" points="162.9087,-42.1293 152.6221,-39.5925 159.0816,-47.9905 162.9087,-42.1293"/>
</g>
<!-- Gr_Rew4&#45;&gt;M_R -->
<g id="edge8" class="edge">
<title>Gr_Rew4&#45;&gt;M_R</title>
<path fill="none" stroke="#00ff00" stroke-width="1.4969" d="M263.3487,-85.379C254.2408,-76.3038 239.8565,-61.9712 227.3598,-49.5193"/>
<polygon fill="#00ff00" stroke="#00ff00" stroke-width="1.4969" points="229.8285,-47.0382 220.2743,-42.4592 224.8876,-51.9969 229.8285,-47.0382"/>
</g>
</g>
</svg>
