<?xml version="1.0" encoding="UTF-8" standalone="no"?>
<!DOCTYPE svg PUBLIC "-//W3C//DTD SVG 1.1//EN"
 "http://www.w3.org/Graphics/SVG/1.1/DTD/svg11.dtd">
<!-- Generated by graphviz version 2.40.1 (20161225.0304)
 -->
<!-- Title: %3 Pages: 1 -->
<svg width="375pt" height="184pt"
 viewBox="0.00 0.00 375.00 184.27" xmlns="http://www.w3.org/2000/svg" xmlns:xlink="http://www.w3.org/1999/xlink">
<g id="graph0" class="graph" transform="scale(1 1) rotate(0) translate(4 180.267)">
<title>%3</title>
<polygon fill="#ffffff" stroke="transparent" points="-4,4 -4,-180.267 371,-180.267 371,4 -4,4"/>
<!-- W1 -->
<g id="node1" class="node">
<title>W1</title>
<polygon fill="#d3d3d3" stroke="#000000" points="29,-176.267 0,-176.267 0,-158.267 29,-158.267 29,-176.267"/>
<text text-anchor="middle" x="14.5" y="-165.067" font-family="Times,serif" font-size="9.00" fill="#000000">W1</text>
</g>
<!-- W2 -->
<g id="node2" class="node">
<title>W2</title>
<polygon fill="#d3d3d3" stroke="#000000" points="76,-176.267 47,-176.267 47,-158.267 76,-158.267 76,-176.267"/>
<text text-anchor="middle" x="61.5" y="-165.067" font-family="Times,serif" font-size="9.00" fill="#000000">W2</text>
</g>
<!-- W3 -->
<g id="node3" class="node">
<title>W3</title>
<polygon fill="#d3d3d3" stroke="#000000" points="270,-176.267 241,-176.267 241,-158.267 270,-158.267 270,-176.267"/>
<text text-anchor="middle" x="255.5" y="-165.067" font-family="Times,serif" font-size="9.00" fill="#000000">W3</text>
</g>
<!-- MR -->
<g id="node10" class="node">
<title>MR</title>
<ellipse fill="#add8e6" stroke="#000000" cx="194.5" cy="-100.3467" rx="21.8409" ry="21.8409"/>
<text text-anchor="middle" x="194.5" y="-98.1467" font-family="Times,serif" font-size="9.00" fill="#000000">MR</text>
</g>
<!-- W3&#45;&gt;MR -->
<g id="edge3" class="edge">
<title>W3&#45;&gt;MR</title>
<path fill="none" stroke="#ff0000" stroke-width=".6803" d="M247.2733,-158.2419C239.3236,-149.5206 226.935,-135.9297 216.1584,-124.1072"/>
<polygon fill="#ff0000" stroke="#ff0000" stroke-width=".6803" points="218.6956,-121.6951 209.3723,-116.6624 213.5223,-126.4107 218.6956,-121.6951"/>
</g>
<!-- 191 -->
<g id="node11" class="node">
<title>191</title>
<ellipse fill="#ffffff" stroke="#000000" cx="255.5" cy="-100.3467" rx="21.4286" ry="21.4286"/>
<text text-anchor="middle" x="255.5" y="-98.1467" font-family="Times,serif" font-size="9.00" fill="#000000">191</text>
</g>
<!-- W3&#45;&gt;191 -->
<g id="edge4" class="edge">
<title>W3&#45;&gt;191</title>
<path fill="none" stroke="#ff0000" stroke-width=".167" d="M255.5,-158.2419C255.5,-151.3775 255.5,-141.4963 255.5,-131.8351"/>
<polygon fill="#ff0000" stroke="#ff0000" stroke-width=".167" points="259.0001,-131.5911 255.5,-121.5911 252.0001,-131.5911 259.0001,-131.5911"/>
</g>
<!-- W4 -->
<g id="node4" class="node">
<title>W4</title>
<polygon fill="#d3d3d3" stroke="#000000" points="318,-176.267 289,-176.267 289,-158.267 318,-158.267 318,-176.267"/>
<text text-anchor="middle" x="303.5" y="-165.067" font-family="Times,serif" font-size="9.00" fill="#000000">W4</text>
</g>
<!-- ML -->
<g id="node9" class="node">
<title>ML</title>
<ellipse fill="#add8e6" stroke="#000000" cx="287.5" cy="-21.2132" rx="21.4286" ry="21.4286"/>
<text text-anchor="middle" x="287.5" y="-19.0132" font-family="Times,serif" font-size="9.00" fill="#000000">ML</text>
</g>
<!-- W4&#45;&gt;ML -->
<g id="edge7" class="edge">
<title>W4&#45;&gt;ML</title>
<path fill="none" stroke="#ff0000" stroke-width=".2863" d="M302.4991,-158.1307C300.2335,-137.4495 294.6239,-86.2424 290.9438,-52.6495"/>
<polygon fill="#ff0000" stroke="#ff0000" stroke-width=".2863" points="294.3917,-51.982 289.8235,-42.4226 287.4333,-52.7443 294.3917,-51.982"/>
</g>
<!-- W4&#45;&gt;MR -->
<g id="edge5" class="edge">
<title>W4&#45;&gt;MR</title>
<path fill="none" stroke="#ff0000" stroke-width=".1674" d="M288.886,-159.3644C273.0321,-150.6699 247.0943,-136.0894 225.5,-122.267 224.0115,-121.3142 222.4947,-120.3206 220.9719,-119.305"/>
<polygon fill="#ff0000" stroke="#ff0000" stroke-width=".1674" points="222.5655,-116.1538 212.3396,-113.3821 218.6051,-121.9258 222.5655,-116.1538"/>
</g>
<!-- Ep1 -->
<g id="node5" class="node">
<title>Ep1</title>
<polygon fill="#d3d3d3" stroke="#000000" points="367,-176.267 336,-176.267 336,-158.267 367,-158.267 367,-176.267"/>
<text text-anchor="middle" x="351.5" y="-165.067" font-family="Times,serif" font-size="9.00" fill="#000000">Ep1</text>
</g>
<!-- Ep2 -->
<g id="node6" class="node">
<title>Ep2</title>
<polygon fill="#d3d3d3" stroke="#000000" points="174,-176.267 143,-176.267 143,-158.267 174,-158.267 174,-176.267"/>
<text text-anchor="middle" x="158.5" y="-165.067" font-family="Times,serif" font-size="9.00" fill="#000000">Ep2</text>
</g>
<!-- Ep2&#45;&gt;MR -->
<g id="edge2" class="edge">
<title>Ep2&#45;&gt;MR</title>
<path fill="none" stroke="#00ff00" stroke-width="1.1081" d="M163.3551,-158.2419C167.4224,-150.6812 173.4585,-139.4608 179.1367,-128.9054"/>
<polygon fill="#00ff00" stroke="#00ff00" stroke-width="1.1081" points="182.3209,-130.3742 183.9761,-119.9095 176.1563,-127.0579 182.3209,-130.3742"/>
</g>
<!-- Ep3 -->
<g id="node7" class="node">
<title>Ep3</title>
<polygon fill="#d3d3d3" stroke="#000000" points="223,-176.267 192,-176.267 192,-158.267 223,-158.267 223,-176.267"/>
<text text-anchor="middle" x="207.5" y="-165.067" font-family="Times,serif" font-size="9.00" fill="#000000">Ep3</text>
</g>
<!-- Ep3&#45;&gt;MR -->
<g id="edge6" class="edge">
<title>Ep3&#45;&gt;MR</title>
<path fill="none" stroke="#00ff00" stroke-width=".2157" d="M205.7468,-158.2419C204.4094,-151.3574 202.4825,-141.4385 200.6005,-131.7503"/>
<polygon fill="#00ff00" stroke="#00ff00" stroke-width=".2157" points="204.0249,-131.0237 198.682,-121.8747 197.1533,-132.3586 204.0249,-131.0237"/>
</g>
<!-- Ep4 -->
<g id="node8" class="node">
<title>Ep4</title>
<polygon fill="#d3d3d3" stroke="#000000" points="125,-176.267 94,-176.267 94,-158.267 125,-158.267 125,-176.267"/>
<text text-anchor="middle" x="109.5" y="-165.067" font-family="Times,serif" font-size="9.00" fill="#000000">Ep4</text>
</g>
<!-- Ep4&#45;&gt;MR -->
<g id="edge8" class="edge">
<title>Ep4&#45;&gt;MR</title>
<path fill="none" stroke="#ff0000" stroke-width=".1398" d="M120.9635,-158.2419C133.2347,-148.5808 153.0962,-132.9439 169.0862,-120.3549"/>
<polygon fill="#ff0000" stroke="#ff0000" stroke-width=".1398" points="171.3424,-123.0333 177.0344,-114.0973 167.0122,-117.5333 171.3424,-123.0333"/>
</g>
<!-- ML&#45;&gt;ML -->
<g id="edge1" class="edge">
<title>ML&#45;&gt;ML</title>
<path fill="none" stroke="#ff0000" stroke-width=".3643" d="M304.4286,-34.5492C315.7212,-38.3031 326.7132,-33.8577 326.7132,-21.2132 326.7132,-12.5201 321.5178,-7.7024 314.6011,-6.7601"/>
<polygon fill="#ff0000" stroke="#ff0000" stroke-width=".3643" points="313.9868,-3.3064 304.4286,-7.8772 314.7509,-10.2645 313.9868,-3.3064"/>
</g>
<!-- 29 -->
<g id="node12" class="node">
<title>29</title>
<ellipse fill="none" stroke="#000000" cx="194.5" cy="-21.2132" rx="18.2703" ry="18.2703"/>
<text text-anchor="middle" x="194.5" y="-19.0132" font-family="Times,serif" font-size="9.00" fill="#000000">29</text>
</g>
<!-- MR&#45;&gt;29 -->
<g id="edge9" class="edge">
<title>MR&#45;&gt;29</title>
<path fill="none" stroke="#ff0000" stroke-width=".1334" d="M194.5,-78.3036C194.5,-69.4651 194.5,-59.1647 194.5,-49.7653"/>
<polygon fill="#ff0000" stroke="#ff0000" stroke-width=".1334" points="198.0001,-49.6619 194.5,-39.6619 191.0001,-49.662 198.0001,-49.6619"/>
</g>
<!-- 191&#45;&gt;ML -->
<g id="edge10" class="edge">
<title>191&#45;&gt;ML</title>
<path fill="none" stroke="#ff0000" stroke-width=".3069" d="M263.575,-80.378C267.2409,-71.3123 271.6495,-60.4102 275.6781,-50.4478"/>
<polygon fill="#ff0000" stroke="#ff0000" stroke-width=".3069" points="279.0343,-51.4843 279.5385,-40.9014 272.5448,-48.86 279.0343,-51.4843"/>
</g>
<!-- 29&#45;&gt;29 -->
<g id="edge11" class="edge">
<title>29&#45;&gt;29</title>
<path fill="none" stroke="#00ff00" stroke-width=".8255" d="M208.3131,-33.7816C219.4198,-38.8089 230.8848,-34.6195 230.8848,-21.2132 230.8848,-11.9964 225.4658,-7.136 218.4698,-6.6319"/>
<polygon fill="#00ff00" stroke="#00ff00" stroke-width=".8255" points="217.4418,-3.2675 208.3131,-8.6448 218.8027,-10.134 217.4418,-3.2675"/>
</g>
</g>
</svg>
